<svg width="20" height="20" viewBox="0 0 20 20" fill="none" xmlns="http://www.w3.org/2000/svg">
<path d="M12.4498 4.32502C12.7648 3.96192 13.0051 3.54016 13.1566 3.08397C13.3082 2.62777 13.3682 2.14613 13.3331 1.66669C12.3659 1.74476 11.4681 2.19965 10.8331 2.93335C10.5291 3.285 10.2986 3.69409 10.1555 4.13639C10.0123 4.57869 9.9594 5.04522 9.9998 5.50835C10.4716 5.51228 10.938 5.4076 11.3628 5.2024C11.7876 4.99721 12.1596 4.697 12.4498 4.32502ZM14.5498 10.525C14.5554 9.88647 14.7236 9.25987 15.0385 8.70436C15.3535 8.14884 15.8048 7.68274 16.3498 7.35002C16.0058 6.85439 15.5511 6.44572 15.0217 6.15642C14.4923 5.86712 13.9027 5.70515 13.2998 5.68335C11.9998 5.55002 10.7998 6.44169 10.1081 6.44169C9.41647 6.44169 8.44147 5.70002 7.35814 5.71669C6.64991 5.74002 5.95982 5.9465 5.35518 6.31601C4.75053 6.68551 4.25198 7.20542 3.90814 7.82502C2.44147 10.375 3.53314 14.1667 4.9998 16.225C5.66647 17.2334 6.4998 18.375 7.5998 18.3334C8.6998 18.2917 9.05814 17.65 10.3331 17.65C11.6081 17.65 11.9998 18.3334 13.0831 18.3084C14.1665 18.2834 14.9331 17.275 15.6331 16.2667C16.129 15.5346 16.5164 14.7347 16.7831 13.8917C16.1227 13.61 15.5592 13.1411 15.1623 12.5428C14.7654 11.9445 14.5525 11.243 14.5498 10.525Z" fill="black"/>
</svg>
