<svg width="19" height="18" viewBox="0 0 19 18" fill="none" xmlns="http://www.w3.org/2000/svg">
<path d="M18.2266 9.19999C18.2266 8.46 18.1653 7.92 18.0327 7.36001H9.41024V10.7H14.4714C14.3694 11.53 13.8184 12.78 12.5939 13.62L12.5767 13.7318L15.303 15.8015L15.4919 15.82C17.2265 14.25 18.2266 11.94 18.2266 9.19999Z" fill="#3843FF"/>
<path d="M9.41024 18C11.8898 18 13.9714 17.2 15.4919 15.82L12.5939 13.62C11.8184 14.15 10.7776 14.52 9.41024 14.52C6.98168 14.52 4.92047 12.95 4.18571 10.78L4.07801 10.789L1.2432 12.939L1.20613 13.04C2.71632 15.9799 5.81837 18 9.41024 18Z" fill="#3BA935"/>
<path d="M4.18571 10.78C3.99183 10.22 3.87963 9.61997 3.87963 9C3.87963 8.37996 3.99183 7.77998 4.17551 7.21999L4.17037 7.10073L1.30004 4.91619L1.20613 4.95996C0.583709 6.17998 0.226562 7.55 0.226562 9C0.226562 10.45 0.583709 11.82 1.20613 13.04L4.18571 10.78Z" fill="#FEA800"/>
<path d="M9.41024 3.47998C11.1347 3.47998 12.2979 4.20997 12.9612 4.82001L15.5531 2.34C13.9613 0.890004 11.8898 0 9.41024 0C5.81837 0 2.71632 2.01998 1.20613 4.95996L4.17551 7.21999C4.92047 5.05 6.98168 3.47998 9.41024 3.47998Z" fill="#E3524F"/>
</svg>
